<?xml version="1.0" encoding="utf-8"?>
<!-- Generator: Adobe Illustrator 24.3.0, SVG Export Plug-In . SVG Version: 6.00 Build 0)  -->
<svg version="1.2" baseProfile="tiny" id="Layer_1" xmlns="http://www.w3.org/2000/svg" xmlns:xlink="http://www.w3.org/1999/xlink"
	 x="0px" y="0px" viewBox="0 0 266 36" overflow="visible" xml:space="preserve">
<path fill="#00D2D2" d="M126.9,28.8v-6.1h6.1v6.1H126.9z"/>
<path d="M16.3,4.7V0H36v4.7h-7.1v24.1h-5.5V4.7H16.3z"/>
<path fill="#00D2D2" d="M37.9,18c0-1.6,0.2-3,0.5-4.4S39.3,11,40,10s1.6-1.8,2.7-2.4c1-0.6,2.3-0.9,3.7-0.9s2.7,0.3,3.7,0.9
	c1.1,0.6,1.9,1.4,2.6,2.5V0H58v28.8h-5.3v-2.9c-0.7,1.1-1.5,1.9-2.5,2.5s-2.2,0.9-3.7,0.9c-1.4,0-2.7-0.3-3.8-0.9S40.7,27,40,26
	s-1.3-2.2-1.6-3.6C38.1,21.1,37.9,19.6,37.9,18z M43.4,21.1c0,1.2,0.4,2.2,1.2,3s1.9,1.2,3.3,1.2c1.7,0,2.9-0.5,3.7-1.5
	s1.2-2.4,1.2-4.1v-3.2c0-1.7-0.4-3.1-1.2-4.1s-2-1.5-3.7-1.5c-1.4,0-2.5,0.4-3.3,1.2s-1.2,1.8-1.2,3C43.4,15.1,43.4,21.1,43.4,21.1z
	"/>
<path fill="#00D2D2" d="M62.1,22.7c0-1.7,0.6-3.3,1.8-4.5c1.2-1.3,3-2,5.3-2.2l6-0.5V14c0-1.1-0.3-1.9-0.9-2.5
	c-0.6-0.5-1.4-0.8-2.5-0.8s-2,0.3-2.6,0.8c-0.7,0.5-1,1.3-1,2.3h-5.3c0-1.2,0.3-2.2,0.8-3.1s1.1-1.6,1.9-2.2s1.8-1,2.9-1.4
	c1.1-0.3,2.3-0.5,3.6-0.5c2.6,0,4.6,0.6,6.1,1.9s2.3,3.1,2.3,5.5v10.6H84v4.1h-8.3v-3.3h-0.2c-0.6,1.2-1.4,2.1-2.5,2.8
	c-1,0.7-2.4,1-4,1c-1,0-1.9-0.2-2.7-0.5s-1.5-0.8-2.2-1.4c-0.6-0.6-1.1-1.3-1.4-2.1C62.3,24.6,62.1,23.7,62.1,22.7z M67.6,23.3
	c0,0.6,0.3,1.1,0.9,1.5c0.6,0.3,1.4,0.5,2.3,0.5c1.4,0,2.4-0.5,3.2-1.4c0.8-1,1.2-2.1,1.2-3.5v-0.8L68.8,20
	c-0.8,0.1-1.2,0.6-1.2,1.4V23.3z"/>
<path fill="#00D2D2" d="M86.6,4.7V0H92v4.7H86.6z M86.7,28.8V7.2H92v21.6H86.7z"/>
<path fill="#00D2D2" d="M105.9,7.2h5.7l4.7,15.4h0.2l4.8-15.4h5.6L116.5,36h-9.2v-4.1h5.4l1.1-3.1L105.9,7.2z"/>
<polygon points="12.6,4.7 12.6,0 0,0 0,4.7 3.6,4.7 3.6,24.1 0,24.1 0,28.8 12.6,28.8 12.6,24.1 9.1,24.1 9.1,4.7 "/>
<polygon fill="#00D2D2" points="102,24.7 102,0 96.7,0 96.7,28.8 105.6,28.8 105.6,24.7 "/>
<path fill="#00D2D2" d="M259.9,28.8v-6.1h6.1v6.1H259.9z"/>
<path fill="#FFFFFF" d="M149.3,4.7V0H169v4.7h-7.1v24.1h-5.5V4.7H149.3z"/>
<path fill="#00D2D2" d="M170.9,18c0-1.6,0.2-3,0.5-4.4s0.9-2.6,1.6-3.6s1.6-1.8,2.7-2.4c1-0.6,2.3-0.9,3.7-0.9s2.7,0.3,3.7,0.9
	c1.1,0.6,1.9,1.4,2.6,2.5V0h5.3v28.8h-5.3v-2.9c-0.7,1.1-1.5,1.9-2.5,2.5s-2.2,0.9-3.7,0.9c-1.4,0-2.7-0.3-3.8-0.9s-2-1.4-2.7-2.4
	s-1.3-2.2-1.6-3.6C171.1,21.1,170.9,19.6,170.9,18z M176.4,21.1c0,1.2,0.4,2.2,1.2,3s1.9,1.2,3.3,1.2c1.7,0,2.9-0.5,3.7-1.5
	s1.2-2.4,1.2-4.1v-3.2c0-1.7-0.4-3.1-1.2-4.1s-2-1.5-3.7-1.5c-1.4,0-2.5,0.4-3.3,1.2s-1.2,1.8-1.2,3
	C176.4,15.1,176.4,21.1,176.4,21.1z"/>
<path fill="#00D2D2" d="M195.1,22.7c0-1.7,0.6-3.3,1.8-4.5c1.2-1.3,3-2,5.3-2.2l6-0.5V14c0-1.1-0.3-1.9-0.9-2.5
	c-0.6-0.5-1.4-0.8-2.5-0.8s-2,0.3-2.6,0.8c-0.7,0.5-1,1.3-1,2.3h-5.3c0-1.2,0.3-2.2,0.8-3.1s1.1-1.6,1.9-2.2s1.8-1,2.9-1.4
	c1.1-0.3,2.3-0.5,3.6-0.5c2.6,0,4.6,0.6,6.1,1.9s2.3,3.1,2.3,5.5v10.6h3.5v4.1h-8.3v-3.3h-0.2c-0.6,1.2-1.4,2.1-2.5,2.8
	c-1,0.7-2.4,1-4,1c-1,0-1.9-0.2-2.7-0.5s-1.5-0.8-2.2-1.4c-0.6-0.6-1.1-1.3-1.4-2.1C195.3,24.6,195.1,23.7,195.1,22.7L195.1,22.7z
	 M200.6,23.3c0,0.6,0.3,1.1,0.9,1.5c0.6,0.3,1.4,0.5,2.3,0.5c1.4,0,2.4-0.5,3.2-1.4c0.8-1,1.2-2.1,1.2-3.5v-0.8l-6.4,0.4
	c-0.8,0.1-1.2,0.6-1.2,1.4V23.3z"/>
<path fill="#00D2D2" d="M219.6,4.7V0h5.4v4.7H219.6z M219.7,28.8V7.2h5.3v21.6H219.7z"/>
<path fill="#00D2D2" d="M238.9,7.2h5.7l4.7,15.4h0.2l4.8-15.4h5.6L249.5,36h-9.2v-4.1h5.4l1.1-3.1L238.9,7.2z"/>
<polygon fill="#FFFFFF" points="145.6,4.7 145.6,0 133,0 133,4.7 136.6,4.7 136.6,24.1 133,24.1 133,28.8 145.6,28.8 145.6,24.1 
	142.1,24.1 142.1,4.7 "/>
<polygon fill="#00D2D2" points="235,24.7 235,0 229.7,0 229.7,28.8 238.6,28.8 238.6,24.7 "/>
</svg>
